<svg xmlns="http://www.w3.org/2000/svg" xmlns:xlink="http://www.w3.org/1999/xlink">
  <symbol id="red-line" viewBox="0 0 48 48">
    <path d="M13.41,14.88c-6.19.8-9.33,7.08-9.26,11.87A11.94,11.94,0,0,0,6.5,33.5l1.44-1.78a9.14,9.14,0,0,1-2.46-5.15,9.37,9.37,0,0,1,18.59-2.4L25.39,24A10.7,10.7,0,0,0,13.41,14.88Z"/>
    <path d="M39,32.82a10.47,10.47,0,0,0,5.52-5.47,11.74,11.74,0,0,0,.72-6.08A15.06,15.06,0,0,0,43.5,15.5l-1.94,1.28a9.16,9.16,0,0,1,2.52,7,9.38,9.38,0,0,1-18.64.54l-1.33.17A10.73,10.73,0,0,0,39,32.82Z" />
  </symbol>
</svg>